<?xml version="1.0" standalone="no"?>
<!DOCTYPE svg PUBLIC "-//W3C//DTD SVG 20010904//EN"
 "http://www.w3.org/TR/2001/REC-SVG-20010904/DTD/svg10.dtd">
<svg version="1.0" xmlns="http://www.w3.org/2000/svg"
 width="366.000000pt" height="366.000000pt" viewBox="0 0 366.000000 366.000000"
 preserveAspectRatio="xMidYMid meet">
<metadata>
Created by potrace 1.11, written by Peter Selinger 2001-2013
</metadata>
<g transform="translate(0.000000,366.000000) scale(0.100000,-0.100000)"
fill="#000000" stroke="none">
<path d="M1640 3464 c-482 -58 -860 -233 -1170 -544 -234 -233 -373 -487 -442
-804 -32 -146 -32 -436 0 -582 69 -317 208 -571 442 -804 281 -282 607 -447
1040 -527 72 -13 149 -17 320 -17 171 0 248 4 320 17 433 80 759 245 1040 527
234 233 373 487 442 804 32 146 32 436 0 582 -69 317 -208 571 -442 804 -280
281 -612 449 -1035 525 -87 16 -435 29 -515 19z"/>
</g>
</svg>
